# xmcd
#
# Track frame offsets: 
#        182
#        24375
#        38645
#        50360
#        66135
#        89857
#        108195
#        126070
#        144597
#        160770
#        179577
#        194772
#        212222
#        227235
#        237750
#        266810
#        292480
#
# Disc length: 4175 seconds
#
# Revision: 10
# Processed by: cddbd v1.5.2PL0 Copyright (c) Steve Scherf et al.
# Submitted via: ExactAudioCopyFreeDBPlugin 1.0
#
DISCID=08104d11
DTITLE=The Meters - The Meters - Anthology CD2 [TheReprise,WarnerBros.
DTITLE=Years,1972-77]
DYEAR=1972
DGENRE=Soul
TTITLE0=Stay Away [1972,from'CabbageAlley']
TTITLE1=Soul Island [1972,from'CabbageAlley']
TTITLE2=Do The Dirt [1972,from'CabbageAlley']
TTITLE3=Cabbage Alley [1972,from'CabbageAlley']
TTITLE4=People Say [1974,from'Rejuvenation']
TTITLE5=Hey Pocky A-Way [1974,from'Rejuvenation']
TTITLE6=Africa [1974,from'Rejuvenation']
TTITLE7=Fire On The Bayou [1975,from'FireOnTheBayou']
TTITLE8=Talkin' 'Bout New Orleans [1975,from'FireOnTheBayou']
TTITLE9=They All Ask'd For You [1975,from'FireOnTheBayou']
TTITLE10=Running Fast (SingleVersion) [1975,from'FireOnTheBayou']
TTITLE11=(Doodle Loop) The World Is A Little Bit Under The Weather [19
TTITLE11=76,from'TrickBag']
TTITLE12=Trick Bag [1976,from'TrickBag']
TTITLE13=Hang 'Em High [1976,from'TrickBag']
TTITLE14=Be My Lady [1977#78,from'NewDirections']
TTITLE15=Funkify Your Life [1977,from'NewDirections']
TTITLE16=Give It What You Can [1977,from'NewDirections']
EXTD=
EXTT0=
EXTT1=
EXTT2=
EXTT3=
EXTT4=
EXTT5=
EXTT6=
EXTT7=
EXTT8=
EXTT9=
EXTT10=
EXTT11=
EXTT12=
EXTT13=
EXTT14=
EXTT15=
EXTT16=
PLAYORDER=
